<svg xmlns="http://www.w3.org/2000/svg" viewBox="0 0 15.8 12.34"><defs><style>.cls-1{fill:#023047;}.cls-2{fill:#ffba07;}</style></defs><g id="Layer_2" data-name="Layer 2"><g id="Layer_1-2" data-name="Layer 1"><path class="cls-1" d="M15.8,5.47c0,.08,0,.12,0,.15-.4.78-.8,1.57-1.21,2.4-1.14.27-2.27.56-3.42.81a18.91,18.91,0,0,1-4.74.5A6.12,6.12,0,0,1,3.67,8.7,2.87,2.87,0,0,1,2.11,6.25a5,5,0,0,1,.94-3.2A13,13,0,0,1,5.82.13L6,0H6c-.46.52-.94,1-1.37,1.58A5.65,5.65,0,0,0,3.37,4.51,2.24,2.24,0,0,0,4.61,6.83a5.27,5.27,0,0,0,2.14.52,15.45,15.45,0,0,0,4.54-.51c1.34-.35,2.65-.79,4-1.19Z"/><path class="cls-1" d="M2,3.43a7.12,7.12,0,0,0-.34.87,13.15,13.15,0,0,0-.49,2.11A3.08,3.08,0,0,0,3.06,9.73a8.16,8.16,0,0,0,3.27.69A23.7,23.7,0,0,0,12,9.84l1.83-.38-1.2,2.4a28.86,28.86,0,0,1-5.24.48,13.52,13.52,0,0,1-3.8-.47,8.45,8.45,0,0,1-1.8-.78,3.43,3.43,0,0,1-1.69-4A9.24,9.24,0,0,1,1.6,4c.12-.19.26-.36.39-.54Z"/><path class="cls-2" d="M7.66,5.51A1,1,0,0,0,7.7,5q0-.12-.12-.09A.11.11,0,0,0,7.51,5a1.09,1.09,0,0,0,0,.22v0a1.94,1.94,0,0,1,0,.24.64.64,0,0,1-.12.25.5.5,0,0,1-.19.11.36.36,0,0,1-.14,0,.2.2,0,0,1-.11,0,.47.47,0,0,1-.32-.32l-.32.1-.08-.31.32-.1a1.17,1.17,0,0,1,.09-.59l.26,0,.08.07a2.11,2.11,0,0,0-.07.3.66.66,0,0,0,0,.25c0,.1.07.14.14.12a.15.15,0,0,0,.08-.12,1.15,1.15,0,0,0,0-.19V5c0-.06,0-.12,0-.18a.6.6,0,0,1,0-.16.45.45,0,0,1,.25-.2l.14,0a2.05,2.05,0,0,0-.18-.33c-.07,0-1.43.19-1.81.2l.16,1.3.57.76L7.81,6A4.18,4.18,0,0,0,8,5.55Z"/><path class="cls-2" d="M6.94,4.74a2.11,2.11,0,0,0-.07.3.66.66,0,0,0,0,.25c0,.1.07.14.14.12a.15.15,0,0,0,.08-.12,1.15,1.15,0,0,0,0-.19V5A.78.78,0,0,0,6.94,4.74Zm0,0a2.11,2.11,0,0,0-.07.3.66.66,0,0,0,0,.25c0,.1.07.14.14.12a.15.15,0,0,0,.08-.12,1.15,1.15,0,0,0,0-.19V5A.78.78,0,0,0,6.94,4.74Zm0,0a2.11,2.11,0,0,0-.07.3.66.66,0,0,0,0,.25c0,.1.07.14.14.12a.15.15,0,0,0,.08-.12,1.15,1.15,0,0,0,0-.19V5A.78.78,0,0,0,6.94,4.74Zm0,0a2.11,2.11,0,0,0-.07.3.66.66,0,0,0,0,.25c0,.1.07.14.14.12a.15.15,0,0,0,.08-.12,1.15,1.15,0,0,0,0-.19V5A.78.78,0,0,0,6.94,4.74ZM9,3.3A26.66,26.66,0,0,1,4.23,4.39,2.52,2.52,0,0,0,5.29,6.51a.45.45,0,0,0,.26,0,11.47,11.47,0,0,0,2.74-.32,4.33,4.33,0,0,0,1.35-.51C9.42,4.9,9.21,4.12,9,3.3ZM8.07,5.05a1.07,1.07,0,0,1,0,.51H8l-.3,0A1,1,0,0,0,7.7,5q0-.12-.12-.09A.11.11,0,0,0,7.51,5a1.09,1.09,0,0,0,0,.22v0a1,1,0,0,1-.91,1A2,2,0,0,0,7,5.86a.2.2,0,0,1-.11,0,.47.47,0,0,1-.32-.32l-.32.1-.08-.31.32-.1a1.17,1.17,0,0,1,.09-.59l.26,0a2.17,2.17,0,0,0-.77-.35,1.24,1.24,0,0,1,1.09.34.45.45,0,0,1,.25-.2l.14,0a.46.46,0,0,1,.2.05A.64.64,0,0,1,8,4.74l.3-.09.08.3ZM6.87,5a.66.66,0,0,0,0,.25c0,.1.07.14.14.12a.15.15,0,0,0,.08-.12,1.15,1.15,0,0,0,0-.19V5a.78.78,0,0,0-.17-.26A2.11,2.11,0,0,0,6.87,5Zm.07-.3a2.11,2.11,0,0,0-.07.3.66.66,0,0,0,0,.25c0,.1.07.14.14.12a.15.15,0,0,0,.08-.12,1.15,1.15,0,0,0,0-.19V5A.78.78,0,0,0,6.94,4.74Zm0,0a2.11,2.11,0,0,0-.07.3.66.66,0,0,0,0,.25c0,.1.07.14.14.12a.15.15,0,0,0,.08-.12,1.15,1.15,0,0,0,0-.19V5A.78.78,0,0,0,6.94,4.74Zm0,0a2.11,2.11,0,0,0-.07.3.66.66,0,0,0,0,.25c0,.1.07.14.14.12a.15.15,0,0,0,.08-.12,1.15,1.15,0,0,0,0-.19V5A.78.78,0,0,0,6.94,4.74Z"/><path class="cls-2" d="M4.36,3.47a.07.07,0,0,1-.07-.06c0-.21.19-.21.32-.25,1.42-.5,2.84-1,4.25-1.49.43-.16.82-.39,1.26-.6a.06.06,0,0,1,.08,0l.07.25c.23,1,.44,2,.69,3.05a.81.81,0,0,1-.19.82.05.05,0,0,1-.09,0L9.85,1.72a.06.06,0,0,0-.08,0A23.21,23.21,0,0,1,4.36,3.47Z"/><path class="cls-2" d="M9.44,2.43l.89,3.79a.06.06,0,0,1,0,.08,12.23,12.23,0,0,1-3.77.57.06.06,0,0,1,0-.12A10.21,10.21,0,0,0,10,6a.07.07,0,0,0,0-.07L9.27,2.71a.07.07,0,0,0-.08,0A19.59,19.59,0,0,1,4.27,4.15a.06.06,0,0,1-.07,0v0a.06.06,0,0,1,0-.08,1,1,0,0,1,.21-.14c.75-.2,1.51-.37,2.25-.6s1.76-.59,2.69-.9A.05.05,0,0,1,9.44,2.43Z"/></g></g></svg>