<svg width="17" height="26" viewBox="0 0 17 26" fill="none" xmlns="http://www.w3.org/2000/svg">
<path d="M14.5464 0.755005H2.43176C1.44901 0.755005 0.652344 1.41296 0.652344 2.22459V23.7752C0.652344 24.5868 1.44901 25.2448 2.43176 25.2448H14.5464C15.5291 25.2448 16.3258 24.5868 16.3258 23.7752V2.22459C16.3258 1.41296 15.5291 0.755005 14.5464 0.755005Z" stroke="auto" stroke-miterlimit="10"/>
<path d="M13.3858 3.69373H3.58984V18.3876H13.3858V3.69373Z" stroke="auto" stroke-miterlimit="10"/>
<path d="M8.65627 23.1413C9.28946 23.1413 9.80277 22.628 9.80277 21.9948C9.80277 21.3616 9.28946 20.8483 8.65627 20.8483C8.02307 20.8483 7.50977 21.3616 7.50977 21.9948C7.50977 22.628 8.02307 23.1413 8.65627 23.1413Z" fill="auto"/>
</svg>
