<svg width="46" height="47" viewBox="0 0 46 47" fill="none" xmlns="http://www.w3.org/2000/svg">
<g clip-path="url(#clip0_1521_3624)">
<path d="M9 44H24C26.38 44 35.87 40.95 36.81 40.28C37.72 39.64 43.31 33.25 44.69 31.36C44.32 30.46 42.96 29.6 41.07 29.82C38.88 30.07 36.14 34.23 36.05 34.31L29.37 35.82C29.16 35.77 26.79 35.02 24.54 34.43C23.76 34.23 22.49 32.49 22.49 32.35C22.49 31.53 22.78 31.56 24.18 30.83C25.1 30.35 27.96 29.84 28.96 27.54C29.88 25.44 29.29 23.39 25.54 24.88C23.99 25.5 17.35 27.4 14.48 28.56C13.25 29.29 11.92 31.12 11 32H9" stroke="#FFC432" stroke-width="2" stroke-miterlimit="10"/>
<path d="M42 5C42 2.79 40.21 1 38 1C35.79 1 34 2.79 34 5C34 7.21 35.79 9 38 9C40.21 9 42 7.21 42 5Z" stroke="#FFC432" stroke-width="2" stroke-miterlimit="10"/>
<path d="M29 14C29 11.79 27.21 10 25 10C22.79 10 21 11.79 21 14C21 16.21 22.79 18 25 18C27.21 18 29 16.21 29 14Z" stroke="#FFC432" stroke-width="2" stroke-miterlimit="10"/>
<path d="M41 21C41 18.79 39.21 17 37 17C34.79 17 33 18.79 33 21C33 23.21 34.79 25 37 25C39.21 25 41 23.21 41 21Z" stroke="#FFC432" stroke-width="2" stroke-miterlimit="10"/>
<path d="M9 29H1V46H9V29Z" stroke="#FFC432" stroke-width="2" stroke-miterlimit="10"/>
<path d="M5 32V35" stroke="#FFC432" stroke-width="2" stroke-miterlimit="10"/>
</g>
<defs>
<clipPath id="clip0_1521_3624">
<rect width="45.83" height="47" fill="white"/>
</clipPath>
</defs>
</svg>
