<svg xmlns="http://www.w3.org/2000/svg" viewBox="0 0 1017.6 195.89"><defs><style>.cls-1{fill:#023047;}.cls-2{fill:#ffba07;}</style></defs><g id="Layer_2" data-name="Layer 2"><g id="Layer_1-2" data-name="Layer 1"><path class="cls-1" d="M245.32,89.31a8,8,0,0,1-.22,2.21C239,103.76,232.78,116,226.32,128.79c-17.57,4.23-35.19,8.8-53,12.65-24.25,5.25-48.77,8.69-73.67,7.77-14.81-.54-29.31-2.68-42.7-9.75-15.39-8.12-22.68-21.35-24.23-38.11C31.05,82.9,37.52,66.7,47.42,51.67,59,34.05,74.07,19.6,90.34,6.37a31.05,31.05,0,0,1,3-2c.09-.06.32.11.27.09C86.54,12.54,79,20.42,72.3,29c-10.51,13.37-18.18,28.22-20,45.47C50.57,90,57.7,103.19,71.62,110.36c10.38,5.35,21.61,7.45,33.15,8,23.91,1.17,47.47-2,70.51-7.89,20.78-5.34,41.18-12.17,61.73-18.37C239.68,91.3,242.3,90.33,245.32,89.31Z"/><path class="cls-1" d="M31.62,57.63c-1.79,4.49-4,8.85-5.26,13.48-2.88,10.85-6.53,21.7-7.61,32.78-2.3,23.5,7.38,41.16,28.76,51.45,16,7.71,33.19,10.17,50.7,10.78,29.86,1,59.24-3,88.4-9,9.18-1.86,18.33-3.85,28.38-6-6.39,12.86-12.44,25-18.56,37.34-27,4.77-54,7.55-81.37,7.36-20-.15-39.81-1.57-58.95-7.33A125.86,125.86,0,0,1,28.05,176.5C4.32,162.35-4.07,141.22,1.81,114.08c3.89-18,13.09-33.43,23.08-48.49,1.89-2.85,4-5.54,6-8.3Z"/><path class="cls-2" d="M118.94,89.88q1.45-5,.62-8.24c-.32-1.24-.92-1.71-1.79-1.43a1.88,1.88,0,0,0-1.17,1.41,12.16,12.16,0,0,0-.27,3.44c0,.22,0,.44,0,.67a24.89,24.89,0,0,1-.34,3.64,7.93,7.93,0,0,1-1.93,3.91A6.73,6.73,0,0,1,111.12,95a7.45,7.45,0,0,1-2.19.39,5.48,5.48,0,0,1-1.63-.18,7.81,7.81,0,0,1-5-5.06l-4.91,1.58L96.13,87l5-1.6a18.63,18.63,0,0,1,1.35-9.2l4.08.61A12,12,0,0,1,107.81,78a21.13,21.13,0,0,0-1.12,4.57,11.17,11.17,0,0,0,.12,3.93c.39,1.53,1.12,2.12,2.19,1.78a1.82,1.82,0,0,0,1.18-1.76,18.48,18.48,0,0,0,.2-3c0-.53,0-1.06.06-1.61,0-.9.14-1.82.27-2.78a7.59,7.59,0,0,1,.83-2.5,6.42,6.42,0,0,1,3.85-3,8.18,8.18,0,0,1,2.16-.41c-1.35-2.85-2.47-5-2.86-5.18-1.11-.37-22.2,3-28.12,3.15l2.59,20.16L98,103.11l23.3-5.18s1.41-4.07,2.22-7.41Z"/><path class="cls-2" d="M107.81,78a21.13,21.13,0,0,0-1.12,4.57,11.17,11.17,0,0,0,.12,3.93c.39,1.53,1.12,2.12,2.19,1.78a1.82,1.82,0,0,0,1.18-1.76,18.48,18.48,0,0,0,.2-3c0-.53,0-1.06.06-1.61A13.42,13.42,0,0,0,107.81,78Zm0,0a21.13,21.13,0,0,0-1.12,4.57,11.17,11.17,0,0,0,.12,3.93c.39,1.53,1.12,2.12,2.19,1.78a1.82,1.82,0,0,0,1.18-1.76,18.48,18.48,0,0,0,.2-3c0-.53,0-1.06.06-1.61A13.42,13.42,0,0,0,107.81,78Zm0,0a21.13,21.13,0,0,0-1.12,4.57,11.17,11.17,0,0,0,.12,3.93c.39,1.53,1.12,2.12,2.19,1.78a1.82,1.82,0,0,0,1.18-1.76,18.48,18.48,0,0,0,.2-3c0-.53,0-1.06.06-1.61A13.42,13.42,0,0,0,107.81,78Zm0,0a21.13,21.13,0,0,0-1.12,4.57,11.17,11.17,0,0,0,.12,3.93c.39,1.53,1.12,2.12,2.19,1.78a1.82,1.82,0,0,0,1.18-1.76,18.48,18.48,0,0,0,.2-3c0-.53,0-1.06.06-1.61A13.42,13.42,0,0,0,107.81,78Zm31.86-22.43c-24.44,9.79-49.67,11.94-74,17-2.31,9.35,7.06,27.07,16.44,32.81a7.92,7.92,0,0,0,4.11.73c14.34-.34,28.64-1.33,42.58-5,7.2-1.88,14.52-3.73,20.85-8C146.26,80.44,143.05,68.29,139.67,55.54ZM125.36,82.7a19.14,19.14,0,0,1-.65,8l-1.15-.16-4.62-.64q1.45-5,.62-8.24c-.32-1.24-.92-1.71-1.79-1.43a1.88,1.88,0,0,0-1.17,1.41,12.16,12.16,0,0,0-.27,3.44c0,.22,0,.44,0,.67.8,7-5.2,13.85-14.18,15.14a27.82,27.82,0,0,0,6.79-5.49,5.48,5.48,0,0,1-1.63-.18,7.81,7.81,0,0,1-5-5.06l-4.91,1.58L96.13,87l5-1.6a18.63,18.63,0,0,1,1.35-9.2l4.08.61c-3.28-2.7-7.63-4-11.93-5.32a19.31,19.31,0,0,1,16.94,5.14,6.42,6.42,0,0,1,3.85-3,8.18,8.18,0,0,1,2.16-.41,5.19,5.19,0,0,1,3,.75A9.23,9.23,0,0,1,124,78l4.71-1.52L130,81.22Zm-18.67-.16a11.17,11.17,0,0,0,.12,3.93c.39,1.53,1.12,2.12,2.19,1.78a1.82,1.82,0,0,0,1.18-1.76,18.48,18.48,0,0,0,.2-3c0-.53,0-1.06.06-1.61A13.42,13.42,0,0,0,107.81,78,21.13,21.13,0,0,0,106.69,82.54ZM107.81,78a21.13,21.13,0,0,0-1.12,4.57,11.17,11.17,0,0,0,.12,3.93c.39,1.53,1.12,2.12,2.19,1.78a1.82,1.82,0,0,0,1.18-1.76,18.48,18.48,0,0,0,.2-3c0-.53,0-1.06.06-1.61A13.42,13.42,0,0,0,107.81,78Zm0,0a21.13,21.13,0,0,0-1.12,4.57,11.17,11.17,0,0,0,.12,3.93c.39,1.53,1.12,2.12,2.19,1.78a1.82,1.82,0,0,0,1.18-1.76,18.48,18.48,0,0,0,.2-3c0-.53,0-1.06.06-1.61A13.42,13.42,0,0,0,107.81,78Zm0,0a21.13,21.13,0,0,0-1.12,4.57,11.17,11.17,0,0,0,.12,3.93c.39,1.53,1.12,2.12,2.19,1.78a1.82,1.82,0,0,0,1.18-1.76,18.48,18.48,0,0,0,.2-3c0-.53,0-1.06.06-1.61A13.42,13.42,0,0,0,107.81,78Z"/><path class="cls-2" d="M67.63,58.18a.85.85,0,0,1-1-1c.44-3.21,3-3.21,5-3.91,22-7.65,44.05-15.16,65.93-23.13,6.59-2.39,12.75-6,19.56-9.27a.84.84,0,0,1,1.17.49c.41,1.26.87,2.57,1.17,3.91,3.54,15.76,6.88,31.57,10.63,47.28,1.15,4.83.88,8.88-2.9,12.72a.84.84,0,0,1-1.41-.4C161.51,67,157.31,49.45,152.89,31a.84.84,0,0,0-1.16-.57C124.44,42.66,97.1,52.94,67.63,58.18Z"/><path class="cls-2" d="M165.42.14A1.15,1.15,0,0,1,167.1.9c3.77,16.43,7.63,32.46,10.91,48.61.53,2.6-1.1,5.64-2,8.54a1.16,1.16,0,0,1-1.2.8h-.12a1.15,1.15,0,0,1-1-.88c-3.77-15.65-7.54-31.31-11.59-48.09a1.14,1.14,0,0,0-1.65-.75c-26.94,13.94-54.17,25.23-83.25,32.42A1.15,1.15,0,0,1,76,39.72c1.54-2,4.06-2.41,6.25-3.14A508.51,508.51,0,0,0,147,10.14C153,7.16,158.81,3.78,165.42.14Z"/><path class="cls-2" d="M146.61,42.07c4.59,19.57,9.13,39,13.79,58.88a1,1,0,0,1-.7,1.17c-19.52,5.18-38.66,9.91-58.39,8.94a1,1,0,0,1,0-1.94C119.74,107.7,138,104.88,155.61,97a1,1,0,0,0,.54-1.12c-4.05-16.48-8-32.48-12.16-49.43a1,1,0,0,0-1.34-.66,303.67,303.67,0,0,1-76.41,23,1,1,0,0,1-1-.46l-.1-.17A1,1,0,0,1,65.36,67a10,10,0,0,1,3.28-2.16c11.64-3.18,23.45-5.79,35-9.34,13.74-4.22,27.27-9.15,41.74-14.08A1,1,0,0,1,146.61,42.07Z"/><path class="cls-2" d="M276.86,54.77h79V61c0,5.28-3.11,8.3-8.7,8.3H294.74v35.48h51v5.89c0,5.43-3.11,8.45-8.71,8.45h-42.3v37.59c0,5.28-3.42,8.61-8.86,8.61h-9Z"/><path class="cls-2" d="M366.27,146.71V54.47h8.24a7.73,7.73,0,0,1,8.09,7.85V144.9c0,4.07.31,7.54,4.51,7.69a13.28,13.28,0,0,0,4.82-.45c2.95-.45,5.91.76,6.84,4.83l.93,5.89s-5.6,3.62-14.92,3.62c-12,0-18.51-6-18.51-16.3v-3.47Z"/><path class="cls-2" d="M446.66,85c23.79,0,38.87,15,38.87,41.37,0,2-.15,4.07-.15,5.73H422.09c.94,11.78,11.67,21.29,28,21.29a38.43,38.43,0,0,0,17.42-3.93c3.73-1.66,7.62-1.81,10.73,1.51l3.73,3.78s-10.27,12.08-32.81,12.08c-27.52,0-43.85-16.91-43.85-40.77C405.3,99.15,424.89,85,446.66,85Zm-24.57,35.63h46.5c-.63-13.13-7.47-22.19-22.08-22.19C433,98.4,422.87,107.15,422.09,120.59Z"/><path class="cls-2" d="M517,91.15l16.79,25.67,16.64-25.67a9.78,9.78,0,0,1,8.55-4.68h13.84l-27.37,39.4,28,39.41h-14a9.73,9.73,0,0,1-8.4-4.53l-17.26-25.06-17,25.06a9.39,9.39,0,0,1-8.4,4.53h-14l27.83-38.8-27.52-40h13.84A9.53,9.53,0,0,1,517,91.15Z"/><path class="cls-1" d="M583.76,54.77h9.18c5.28,0,8.86,3.32,8.86,8.6v87.41h49.29c5.29,0,8.86,3.47,8.86,8.61v5.89H583.76Z"/><path class="cls-1" d="M708.32,85c25.18,0,42.44,18.12,42.44,40.76,0,22.8-17.26,41.07-42.44,41.07S666,148.52,666,125.72C666,103.08,683.13,85,708.32,85ZM682.5,125.72c0,15.55,9.18,26.57,25.82,26.57s25.81-11,25.81-26.57c0-15.4-9.18-26.27-25.81-26.27S682.5,110.32,682.5,125.72Z"/><path class="cls-1" d="M821.67,158.78v-5c-6.22,9.81-16.64,12.68-27.36,12.68-17.26,0-30.33-8.75-30.33-24.75s14.93-25.67,33.9-25.67c8.71,0,15.4,1.36,23.48,3.78,0-14.8-7.62-21-21.15-21A58.34,58.34,0,0,0,782.49,102c-4.82,1.51-9.8-.3-10.89-5.43l-.93-4.53a69.78,69.78,0,0,1,30.94-7.25c25,0,35.92,13.29,35.92,34.87v45.6h-9C824.16,165.28,821.67,162.56,821.67,158.78Zm-23-4.68c9,0,22.7-5.13,22.7-19V130.7a55.86,55.86,0,0,0-20.21-3.62c-13.69,0-21,5.89-21,13.89C780.16,150,789.64,154.1,798.66,154.1Z"/><path class="cls-1" d="M868.17,165.28h-8.24V86.47h8.24a7.73,7.73,0,0,1,8.08,7.85v4.23c5.91-6.64,15.4-13.44,28.92-13.44,18.2,0,31,12.68,31,33.06v47.11h-8.24a7.74,7.74,0,0,1-8.09-7.85V121.19c0-13.88-7.46-21.58-20.06-21.58-14.15,0-23.48,9.66-23.48,22.79v35A7.74,7.74,0,0,1,868.17,165.28Z"/><path class="cls-1" d="M952.14,157.43l2-3.63c2.33-4.38,7.46-5.13,12.28-3.32a51.46,51.46,0,0,0,19.9,4.23c9.18,0,15.4-2.87,15.4-9.51,0-19.48-48.83-4.83-48.83-36.38,0-16.46,15.09-23.56,30.63-23.56,11.82,0,22.4,3,29.55,7.85l-1.71,3.78c-2.18,4.53-7,5.74-11.35,4.23A43.71,43.71,0,0,0,983.54,98c-6.06,0-14.46,2-14.46,9.66,0,18.11,48.52,3.32,48.52,36.53,0,15.1-13.22,23.25-30.63,23.25C972,167.39,960.84,163.92,952.14,157.43Z"/></g></g></svg>